<?xml version="1.0" standalone="no"?>
<!DOCTYPE svg PUBLIC "-//W3C//DTD SVG 20010904//EN"
 "http://www.w3.org/TR/2001/REC-SVG-20010904/DTD/svg10.dtd">
<svg version="1.0" xmlns="http://www.w3.org/2000/svg"
 width="1280.000000pt" height="815.000000pt" viewBox="0 0 1280.000000 815.000000"
 preserveAspectRatio="xMidYMid meet">
<g transform="translate(0.000000,815.000000) scale(0.100000,-0.100000)"
fill="#000000" stroke="none">
<path d="M9560 6714 c-8 -1 -36 -6 -62 -9 -37 -5 -58 -16 -97 -51 -72 -65 -92
-115 -85 -212 6 -69 14 -93 79 -228 40 -83 86 -165 104 -183 45 -46 56 -78 36
-107 -18 -28 -88 -70 -132 -79 -46 -9 -199 -71 -249 -100 -48 -28 -48 -30 -59
-168 -4 -48 -2 -90 5 -110 13 -37 -6 -181 -34 -253 -14 -40 -20 -75 -50 -334
-7 -58 -17 -115 -24 -127 -19 -34 -15 -59 22 -143 19 -43 49 -120 67 -171 17
-52 58 -158 90 -236 l58 -142 -16 -80 c-8 -44 -13 -86 -10 -93 3 -9 39 -19
102 -28 67 -9 99 -18 104 -29 5 -9 14 -56 22 -104 10 -70 18 -96 40 -123 20
-25 30 -52 34 -92 7 -60 19 -103 85 -297 22 -66 42 -142 44 -170 2 -27 9 -68
14 -90 6 -22 11 -49 11 -60 -1 -43 21 -382 27 -407 3 -15 8 -148 10 -295 3
-148 5 -278 6 -290 1 -49 -122 -160 -216 -196 -68 -25 -126 -74 -126 -106 0
-81 134 -81 392 0 70 22 137 48 149 58 26 21 40 97 44 246 2 50 8 142 14 205
6 63 15 158 20 210 5 52 15 133 21 180 9 57 10 133 6 235 -4 82 -8 229 -10
325 -1 96 -5 256 -10 355 -5 120 -4 185 3 195 35 51 71 -118 102 -490 13 -164
24 -215 49 -248 18 -22 20 -41 20 -191 0 -111 7 -212 20 -306 11 -77 20 -192
20 -256 0 -110 2 -119 30 -172 17 -31 30 -71 30 -89 0 -18 7 -55 15 -82 8 -27
15 -78 15 -114 0 -64 20 -153 46 -204 24 -47 110 -58 211 -27 37 12 63 43 63
75 0 13 -21 46 -48 76 -64 70 -87 136 -72 204 8 33 9 111 5 239 -5 134 -3 219
5 285 22 159 18 493 -5 531 -5 8 -11 46 -13 84 -2 39 -6 103 -9 143 -3 52 -1
77 9 89 10 12 12 46 10 132 -2 64 1 152 7 196 15 112 21 278 13 355 -4 36 -5
94 -2 130 5 65 5 65 36 65 17 1 43 11 59 23 15 12 38 22 50 22 37 0 125 30
125 43 0 7 -21 74 -46 151 l-46 138 16 82 c44 211 86 445 86 483 0 94 -149
558 -255 793 -24 52 -50 118 -59 146 -30 93 -57 102 -331 110 -194 6 -201 7
-245 33 -59 35 -75 69 -61 126 6 24 11 64 11 89 0 25 5 57 12 71 9 19 8 35 -2
67 -59 198 -79 238 -132 258 -18 7 -52 21 -75 31 -41 18 -59 21 -93 13z m940
-1659 c28 -65 32 -82 26 -125 -9 -65 -24 -106 -36 -94 -10 10 -50 224 -50 266
0 51 26 30 60 -47z m-1203 -273 c18 -63 28 -202 15 -202 -7 0 -18 10 -25 23
-17 27 -42 188 -33 212 10 27 30 12 43 -33z"/>
<path d="M2551 6668 c-41 -24 -79 -52 -85 -63 -6 -11 -22 -37 -35 -58 -21 -33
-25 -52 -27 -145 -3 -92 -1 -109 15 -127 25 -27 34 -47 66 -139 l27 -78 -29
-42 c-37 -53 -66 -67 -253 -116 -225 -60 -256 -81 -285 -195 -44 -169 -67
-399 -54 -537 24 -254 61 -385 155 -539 61 -102 64 -109 64 -170 0 -35 -9
-140 -20 -234 -11 -93 -20 -205 -20 -248 0 -73 1 -78 25 -89 14 -6 35 -27 47
-46 17 -28 20 -43 15 -91 -6 -53 -4 -60 18 -81 23 -22 25 -31 25 -112 0 -61 6
-107 19 -146 36 -107 30 -369 -12 -492 -47 -138 -61 -232 -61 -395 1 -82 6
-187 12 -233 8 -60 9 -105 1 -160 -15 -105 -15 -217 -1 -277 33 -143 33 -144
17 -198 -16 -50 -15 -55 7 -121 31 -92 51 -106 170 -119 105 -11 177 -4 209
22 30 24 21 45 -57 136 -105 124 -105 126 -73 359 9 64 10 105 2 150 -8 46 -7
76 2 121 36 167 63 325 75 440 16 163 25 203 48 228 14 15 22 36 22 57 0 19
20 113 44 210 25 96 47 210 50 252 3 43 10 86 16 98 22 41 56 16 83 -60 8 -25
24 -67 35 -95 37 -92 61 -189 55 -224 -3 -18 0 -56 6 -85 13 -53 10 -70 -44
-306 -22 -97 -11 -660 15 -739 11 -34 15 -63 11 -80 -5 -14 -9 -90 -10 -168
l-2 -142 38 -25 c21 -14 94 -44 163 -67 125 -42 125 -42 280 -43 l155 -1 0 39
c0 35 -5 44 -41 70 -23 17 -65 45 -94 61 -109 64 -176 113 -198 145 -19 29
-22 42 -16 86 4 36 2 60 -9 80 -10 20 -13 46 -10 81 3 29 1 72 -5 96 -9 34 -6
79 14 232 13 105 29 248 34 319 6 71 16 136 22 143 6 7 21 43 34 79 12 36 30
77 40 92 26 40 33 685 9 915 -19 184 -17 207 30 390 86 335 120 563 96 654
-13 50 -41 227 -51 328 -5 44 -14 107 -20 140 -6 33 -12 80 -14 105 -13 149
-20 207 -28 223 -12 24 -107 70 -213 102 -111 35 -141 49 -182 88 -40 37 -43
78 -14 159 39 108 61 195 72 286 10 87 9 95 -11 138 -12 24 -42 71 -65 103
-36 49 -53 62 -100 80 -84 31 -118 28 -204 -21z"/>
<path d="M6350 6686 c-25 -7 -60 -23 -79 -34 -37 -22 -101 -97 -101 -117 0 -7
-10 -25 -22 -41 -21 -26 -23 -38 -21 -126 3 -98 10 -127 63 -258 27 -68 50
-155 50 -194 0 -45 -45 -103 -94 -120 -22 -7 -86 -19 -141 -25 -119 -14 -208
-37 -229 -60 -9 -10 -20 -56 -27 -116 -14 -115 -45 -193 -108 -268 -51 -62
-121 -167 -161 -241 -34 -66 -41 -156 -15 -205 19 -38 30 -41 143 -41 77 0
111 -5 166 -24 37 -13 73 -29 79 -35 14 -14 26 -196 16 -241 -22 -94 -79 -560
-79 -640 0 -34 4 -41 24 -46 34 -8 39 -28 20 -82 -16 -44 -22 -242 -26 -775 0
-21 6 -48 14 -60 8 -12 20 -49 28 -82 7 -33 19 -67 27 -76 9 -11 13 -46 13
-110 0 -52 5 -185 12 -296 9 -160 9 -213 0 -251 -7 -26 -15 -71 -17 -100 -3
-29 -12 -66 -21 -84 -10 -20 -14 -43 -11 -66 4 -23 1 -42 -10 -59 -18 -28
-217 -162 -276 -187 -36 -14 -38 -18 -35 -53 3 -35 6 -39 45 -51 39 -13 57
-11 199 17 156 31 302 79 325 107 14 17 39 219 32 257 -3 15 4 44 16 70 11 24
25 79 31 123 6 43 18 138 28 209 20 156 22 359 3 512 -12 102 -12 115 4 157
11 28 15 61 13 88 -4 33 2 59 23 110 16 36 29 74 29 82 0 28 60 138 73 133 17
-5 33 -43 46 -107 36 -181 113 -466 139 -510 24 -42 52 -161 52 -224 0 -24 11
-105 24 -178 35 -196 39 -237 42 -413 1 -88 2 -178 2 -199 1 -22 -4 -49 -10
-60 -5 -12 -56 -64 -112 -117 -113 -107 -115 -117 -31 -138 58 -15 214 -14
241 2 52 30 115 94 130 131 10 26 17 77 18 136 2 68 8 105 21 129 15 31 17 51
10 175 -8 158 -8 172 -4 411 3 187 -7 257 -62 416 -38 113 -55 267 -39 364 6
39 15 130 19 203 6 80 14 139 22 148 6 8 13 39 14 68 2 29 12 71 24 94 12 23
21 53 21 67 0 14 10 45 22 68 27 51 30 164 10 392 -7 83 -15 224 -17 315 -2
91 -9 207 -15 258 -6 52 -9 105 -5 119 3 15 33 55 65 91 74 83 109 147 122
225 5 34 14 87 20 117 5 30 9 116 8 190 -2 199 -21 264 -86 295 -43 20 -153
36 -239 33 -49 -1 -70 3 -98 21 -53 32 -97 87 -97 120 0 46 28 125 61 171 31
43 31 43 27 149 -4 91 -8 113 -31 155 -15 27 -27 55 -27 62 0 14 -86 82 -136
108 -45 22 -102 26 -154 12z"/>
<path d="M4455 6631 c-22 -10 -61 -37 -87 -60 -40 -36 -48 -50 -58 -99 -6 -31
-20 -95 -30 -142 -12 -54 -21 -141 -23 -240 -7 -238 -42 -327 -135 -350 -57
-13 -121 -72 -147 -133 -41 -100 -63 -238 -69 -447 -3 -113 -15 -290 -26 -395
-19 -182 -19 -197 -4 -348 27 -262 14 -430 -61 -772 -25 -115 -45 -217 -45
-227 0 -21 123 -70 235 -93 44 -9 83 -19 87 -23 14 -14 49 -207 49 -272 1 -36
-4 -94 -11 -130 -19 -97 -16 -390 5 -555 9 -77 19 -210 22 -295 l5 -155 -36
-109 c-33 -103 -39 -113 -91 -161 -49 -46 -55 -56 -55 -91 0 -64 17 -78 89
-76 99 3 160 49 162 121 0 56 31 126 54 126 15 0 21 -8 23 -33 4 -37 22 -34
22 4 0 14 14 59 30 101 16 41 30 85 30 97 0 33 -20 85 -48 128 -23 35 -24 42
-17 130 4 51 18 154 32 228 19 103 27 188 33 360 6 201 10 231 30 285 21 53
23 75 22 191 -1 95 1 134 11 142 16 13 156 -10 167 -29 5 -7 16 -54 25 -104 9
-49 30 -146 47 -215 30 -124 30 -127 22 -280 -5 -85 -7 -272 -6 -415 l4 -260
-37 -113 c-26 -79 -35 -123 -31 -145 17 -93 17 -109 -3 -204 -19 -86 -20 -104
-9 -138 16 -49 63 -78 124 -78 56 0 68 11 84 79 12 50 12 63 -6 127 -16 60
-19 101 -17 239 l2 167 56 163 c98 286 117 375 122 584 4 148 2 195 -12 259
-14 61 -16 101 -11 189 7 106 18 182 29 193 3 2 24 7 46 10 27 4 42 12 46 24
6 19 16 23 78 34 38 6 39 7 34 43 -2 20 -19 100 -36 176 -17 77 -38 200 -46
275 -9 75 -27 193 -42 263 l-26 126 26 94 c28 96 52 237 67 393 5 50 14 117
19 149 6 33 16 148 22 255 11 188 10 200 -10 278 -47 181 -113 280 -203 303
-114 29 -133 54 -125 164 3 39 1 89 -3 111 -5 22 -23 117 -40 210 -33 175 -52
235 -96 292 -35 47 -68 65 -128 74 -28 5 -60 11 -71 14 -11 3 -38 -3 -60 -14z
m499 -1648 c3 -49 10 -135 16 -192 5 -57 7 -107 4 -112 -13 -21 -33 -6 -52 39
-44 104 -47 119 -34 167 7 25 12 63 12 84 0 49 18 101 35 101 9 0 15 -25 19
-87z m-832 -105 c4 -36 -14 -135 -57 -325 -3 -13 -12 -23 -20 -23 -21 0 -19
38 9 187 13 71 27 145 31 166 8 52 32 49 37 -5z"/>
<path d="M8200 6481 c-123 -43 -190 -205 -178 -437 2 -55 10 -84 36 -135 32
-63 33 -68 26 -144 -7 -78 -8 -79 -58 -130 -28 -27 -80 -75 -116 -106 -36 -31
-90 -92 -120 -135 -29 -44 -66 -94 -81 -111 -40 -47 -159 -147 -198 -167 -41
-22 -70 -84 -71 -149 0 -43 3 -49 33 -67 25 -15 50 -20 110 -20 63 0 79 -3 84
-16 3 -9 -6 -53 -20 -98 -48 -149 -52 -175 -152 -1019 -30 -249 -30 -256 -7
-263 9 -3 33 -13 52 -23 46 -24 172 -45 231 -38 32 4 51 2 58 -7 16 -19 49
-183 57 -277 5 -64 14 -99 37 -147 l30 -62 -12 -88 c-6 -48 -23 -179 -36 -290
-14 -112 -34 -245 -46 -295 -27 -116 -93 -289 -119 -312 -11 -10 -20 -21 -20
-25 0 -19 -108 -195 -130 -211 -14 -11 -47 -23 -73 -28 -27 -5 -53 -13 -58
-18 -16 -16 7 -60 38 -76 37 -20 132 -31 188 -23 41 7 49 13 90 71 47 65 117
135 136 135 28 0 50 -24 61 -67 l11 -47 17 60 c9 32 24 73 33 91 9 18 17 52
17 76 0 35 -7 51 -35 84 -42 50 -44 78 -9 153 145 308 194 473 194 656 0 85
12 112 35 81 7 -9 15 -58 18 -109 3 -51 22 -194 42 -318 20 -124 39 -260 42
-302 12 -152 -24 -278 -123 -431 -48 -73 -82 -99 -161 -123 -86 -25 -82 -73 9
-118 89 -44 216 -29 266 31 13 15 42 57 65 93 71 110 121 118 143 24 6 -27 12
-39 13 -26 0 12 17 63 36 112 41 105 40 152 -5 204 -59 68 -61 91 -29 368 26
228 22 351 -15 498 -15 58 -33 122 -41 142 -9 22 -14 70 -14 120 1 58 -7 115
-25 188 -14 58 -26 126 -26 152 0 41 4 50 28 65 15 10 30 23 35 30 4 6 41 17
82 24 42 6 78 15 81 20 2 4 -9 61 -25 126 -16 65 -43 186 -60 268 -34 167 -84
352 -111 405 -9 19 -44 83 -77 143 -34 59 -76 152 -94 207 -31 94 -32 102 -21
152 7 29 17 73 22 98 5 25 11 54 14 65 2 11 24 79 49 150 24 72 57 183 72 248
26 111 28 124 17 195 -7 41 -26 115 -42 162 -32 93 -37 135 -19 173 12 28 48
52 59 40 4 -4 10 -60 13 -123 2 -63 14 -169 26 -235 12 -66 25 -136 28 -155
l6 -35 10 30 c25 75 51 65 48 -20 -1 -31 3 -55 9 -55 18 0 50 78 50 124 0 26
6 51 15 59 11 11 12 23 4 50 -5 20 -6 44 -1 58 5 13 5 38 1 57 -4 19 -3 127 1
241 11 250 8 265 -67 340 -30 30 -66 76 -79 103 -30 59 -88 103 -155 117 -67
15 -85 14 -149 -8z"/>
</g>
</svg>
